<svg width="130" height="130" viewBox="0 0 130 130" fill="none" xmlns="http://www.w3.org/2000/svg">
<g filter="url(#filter0_d_0_107)">
<circle cx="65" cy="61" r="30" fill="white"/>
</g>
<g clip-path="url(#clip0_0_107)">
<path d="M74.4287 57.4504H70.4726V61.9998H65.9232V65.9559H70.4726V70.5053H74.4287V65.9559H78.9781V61.9998H74.4287V57.4504Z" fill="#27AE60"/>
<path d="M63.9451 60.0219H68.4945V55.4724H76.4066V60.0219H78.701C79.5231 58.7032 80 57.2082 80 55.5693C80 51.0013 76.2976 47.2974 71.7305 47.2974C68.9555 47.2974 66.5 48.6643 65 50.7618C63.5 48.6642 61.0445 47.2968 58.2695 47.2968C53.7024 47.2968 50 50.9999 50 55.568C50 57.5538 50.6997 59.3758 51.8659 60.8015L65 76.7033L68.4945 72.4723V67.934H63.9451V60.0219Z" fill="#27AE60"/>
</g>
<defs>
<filter id="filter0_d_0_107" x="0" y="0" width="130" height="130" filterUnits="userSpaceOnUse" color-interpolation-filters="sRGB">
<feFlood flood-opacity="0" result="BackgroundImageFix"/>
<feColorMatrix in="SourceAlpha" type="matrix" values="0 0 0 0 0 0 0 0 0 0 0 0 0 0 0 0 0 0 127 0" result="hardAlpha"/>
<feOffset dy="4"/>
<feGaussianBlur stdDeviation="17.5"/>
<feColorMatrix type="matrix" values="0 0 0 0 0.0980392 0 0 0 0 0.509804 0 0 0 0 0.741176 0 0 0 0.18 0"/>
<feBlend mode="normal" in2="BackgroundImageFix" result="effect1_dropShadow_0_107"/>
<feBlend mode="normal" in="SourceGraphic" in2="effect1_dropShadow_0_107" result="shape"/>
</filter>
<clipPath id="clip0_0_107">
<rect width="30" height="30" fill="white" transform="translate(50 47)"/>
</clipPath>
</defs>
</svg>
