<svg width="130" height="130" viewBox="0 0 130 130" fill="none" xmlns="http://www.w3.org/2000/svg">
<g filter="url(#filter0_d_0_99)">
<circle cx="65" cy="61" r="30" fill="white"/>
</g>
<path d="M79.8661 54.009C79.7766 53.3617 79.643 52.6694 79.4643 51.9327C79.2857 51.1963 79.0209 50.5712 78.6693 50.0577C78.3177 49.5443 77.924 49.2875 77.4889 49.2875C77.4388 49.0698 77.1959 49.0949 76.7605 49.3629C76.3252 49.6308 76.1214 49.7203 76.1497 49.6308C76.1774 49.5415 76.0264 49.653 75.6973 49.9655C75.3681 50.2781 75.2037 50.4343 75.2037 50.4343L74.7097 50.928C74.2746 51.3411 73.6413 51.6562 72.8097 51.8738C71.9782 52.0919 71.066 52.2254 70.0726 52.2757C69.0793 52.3261 68.0832 52.3597 67.0843 52.3762C66.0854 52.3928 65.0836 52.4432 64.0792 52.5268C63.0747 52.6106 62.2655 52.7529 61.6518 52.9538C60.4351 53.3555 59.2968 53.8886 58.2365 54.5527C57.1761 55.2168 56.2248 55.9925 55.3821 56.8799C54.5395 57.7671 53.8753 58.7967 53.39 59.9687C52.9047 61.1402 52.6617 62.3682 52.6617 63.6516C52.6617 64.2432 52.7119 64.8235 52.8123 65.3928C52.8347 65.5044 52.9238 65.75 53.0803 66.1294C53.2366 66.5091 53.3147 66.721 53.3147 66.7659C53.3147 66.9776 53.1417 67.246 52.7956 67.5692C52.4496 67.8929 52.0703 68.2055 51.6572 68.5067C51.2443 68.8079 50.8649 69.1735 50.5188 69.6031C50.1731 70.0331 50 70.4433 50 70.8338C50 70.9121 50.0082 70.9871 50.0251 71.0599C50.042 71.1326 50.0588 71.1854 50.0755 71.2187C50.0921 71.2524 50.123 71.308 50.1675 71.3858C50.2123 71.4639 50.2455 71.5257 50.268 71.5701C50.4578 71.8936 50.6084 72.1282 50.72 72.2732C50.8315 72.4182 51.0044 72.552 51.2389 72.675C51.4731 72.7976 51.758 72.859 52.0927 72.859C52.4165 72.859 52.7512 72.6804 53.0973 72.3236C53.443 71.9666 53.7362 71.5755 53.9761 71.1518C54.2159 70.7277 54.4672 70.337 54.7294 69.9799C54.9916 69.6229 55.2121 69.4443 55.3906 69.4443C55.6473 69.4443 56.1829 69.6509 56.9978 70.0639C57.8125 70.4771 58.3036 70.7113 58.471 70.7673C60.0111 71.2918 61.607 71.5541 63.259 71.5541C65.7592 71.5541 68.203 70.9509 70.5917 69.7456C73.0361 68.5292 75.0308 67.0338 76.5767 65.2591C78.1227 63.4842 79.1521 61.3473 79.6656 58.8469C79.8884 57.7531 79.9999 56.6762 79.9999 55.6158C80 55.1917 79.9554 54.656 79.8661 54.009ZM71.1102 59.6839C70.8981 59.896 70.6467 60.0021 70.3565 60.0021C68.3253 60.0021 66.576 60.2923 65.1083 60.8725C63.6409 61.4528 62.1425 62.435 60.6134 63.8189C60.3905 64.031 60.0165 64.3991 59.4919 64.9238C58.9674 65.4485 58.5543 65.8446 58.2531 66.1124C58.0186 66.3245 57.7676 66.4306 57.4996 66.4306C57.2093 66.4306 56.9582 66.3245 56.7461 66.1124C56.534 65.9009 56.428 65.6492 56.428 65.359C56.428 65.0911 56.534 64.8405 56.7461 64.6057C58.1076 63.0989 59.4219 61.874 60.6887 60.9311C61.9555 59.9881 63.4037 59.2404 65.0332 58.6878C66.6624 58.1352 68.437 57.859 70.3565 57.859C70.6467 57.859 70.8981 57.9651 71.1102 58.1771C71.3221 58.3894 71.4283 58.6405 71.4283 58.9306C71.4282 59.2207 71.3225 59.4719 71.1102 59.6839Z" fill="#27AE60"/>
<defs>
<filter id="filter0_d_0_99" x="0" y="0" width="130" height="130" filterUnits="userSpaceOnUse" color-interpolation-filters="sRGB">
<feFlood flood-opacity="0" result="BackgroundImageFix"/>
<feColorMatrix in="SourceAlpha" type="matrix" values="0 0 0 0 0 0 0 0 0 0 0 0 0 0 0 0 0 0 127 0" result="hardAlpha"/>
<feOffset dy="4"/>
<feGaussianBlur stdDeviation="17.5"/>
<feColorMatrix type="matrix" values="0 0 0 0 0.0980392 0 0 0 0 0.509804 0 0 0 0 0.741176 0 0 0 0.18 0"/>
<feBlend mode="normal" in2="BackgroundImageFix" result="effect1_dropShadow_0_99"/>
<feBlend mode="normal" in="SourceGraphic" in2="effect1_dropShadow_0_99" result="shape"/>
</filter>
</defs>
</svg>
